<svg width="512" height="512" viewBox="0 0 512 512" fill="none" xmlns="http://www.w3.org/2000/svg">
  <rect width="512" height="512" rx="64" fill="#3B82F6"/>
  <path d="M128 256c0-70.7 57.3-128 128-128s128 57.3 128 128" stroke="white" stroke-width="24" stroke-linecap="round"/>
  <path d="M176 256c0-44.2 35.8-80 80-80s80 35.8 80 80" stroke="white" stroke-width="16" stroke-linecap="round"/>
  <circle cx="256" cy="256" r="32" fill="white"/>
  
  <!-- マイクアイコン -->
  <rect x="240" y="320" width="32" height="80" rx="16" fill="white"/>
  <path d="M208 352c0-26.5 21.5-48 48-48s48 21.5 48 48v32" stroke="white" stroke-width="8" stroke-linecap="round" fill="none"/>
  <path d="M256 416v32" stroke="white" stroke-width="8" stroke-linecap="round"/>
  <path d="M232 448h48" stroke="white" stroke-width="8" stroke-linecap="round"/>
  
  <!-- 音声波形 -->
  <path d="M320 320v16" stroke="white" stroke-width="6" stroke-linecap="round"/>
  <path d="M336 312v32" stroke="white" stroke-width="6" stroke-linecap="round"/>
  <path d="M352 316v24" stroke="white" stroke-width="6" stroke-linecap="round"/>
  
  <path d="M192 320v16" stroke="white" stroke-width="6" stroke-linecap="round"/>
  <path d="M176 312v32" stroke="white" stroke-width="6" stroke-linecap="round"/>
  <path d="M160 316v24" stroke="white" stroke-width="6" stroke-linecap="round"/>
</svg>